G04 #@! TF.GenerationSoftware,KiCad,Pcbnew,(2017-11-24 revision a01d81e4b)-makepkg*
G04 #@! TF.CreationDate,2018-01-08T10:26:50+07:00*
G04 #@! TF.ProjectId,Motor DC power,4D6F746F7220444320706F7765722E6B,rev?*
G04 #@! TF.SameCoordinates,Original*
G04 #@! TF.FileFunction,Copper,L2,Bot,Signal*
G04 #@! TF.FilePolarity,Positive*
%FSLAX46Y46*%
G04 Gerber Fmt 4.6, Leading zero omitted, Abs format (unit mm)*
G04 Created by KiCad (PCBNEW (2017-11-24 revision a01d81e4b)-makepkg) date 01/08/18 10:26:50*
%MOMM*%
%LPD*%
G01*
G04 APERTURE LIST*
%ADD10R,1.800000X1.800000*%
%ADD11C,1.800000*%
%ADD12C,1.600000*%
%ADD13O,1.600000X1.600000*%
%ADD14O,2.540000X2.032000*%
%ADD15R,1.727200X1.727200*%
%ADD16O,1.727200X1.727200*%
%ADD17R,3.000000X3.000000*%
%ADD18C,3.000000*%
%ADD19O,1.600000X3.200000*%
%ADD20C,0.500000*%
%ADD21C,0.600000*%
%ADD22C,2.000000*%
G04 APERTURE END LIST*
D10*
X112050000Y-121925000D03*
D11*
X112050000Y-119385000D03*
D12*
X117000000Y-114500000D03*
D13*
X117000000Y-122120000D03*
D14*
X125100000Y-101960000D03*
X125100000Y-104500000D03*
X125100000Y-99420000D03*
D15*
X105225000Y-117200000D03*
D16*
X102685000Y-117200000D03*
X105225000Y-114660000D03*
X102685000Y-114660000D03*
X105225000Y-112120000D03*
X102685000Y-112120000D03*
X105225000Y-109580000D03*
X102685000Y-109580000D03*
X105225000Y-107040000D03*
X102685000Y-107040000D03*
X105225000Y-104500000D03*
X102685000Y-104500000D03*
X105225000Y-101960000D03*
X102685000Y-101960000D03*
X105225000Y-99420000D03*
X102685000Y-99420000D03*
X105225000Y-96880000D03*
X102685000Y-96880000D03*
X105225000Y-94340000D03*
X102685000Y-94340000D03*
D17*
X143700000Y-90190000D03*
D18*
X143700000Y-95270000D03*
X143700000Y-100350000D03*
D17*
X143700000Y-106020000D03*
D18*
X143700000Y-111100000D03*
D17*
X143700000Y-121780000D03*
D18*
X143700000Y-116700000D03*
D14*
X125200000Y-117100000D03*
X125200000Y-119640000D03*
X125200000Y-114560000D03*
D12*
X111750000Y-96450000D03*
D13*
X111750000Y-88830000D03*
D12*
X123900000Y-89875000D03*
D13*
X131520000Y-89875000D03*
D12*
X112100000Y-109570000D03*
D13*
X112100000Y-101950000D03*
D12*
X118025000Y-109425000D03*
D13*
X118025000Y-101805000D03*
D19*
X116005000Y-96460000D03*
X118545000Y-96460000D03*
X118545000Y-88840000D03*
X116005000Y-88840000D03*
D20*
X140909485Y-95270000D02*
X133175000Y-87025000D01*
X143700000Y-95270000D02*
X140909485Y-95270000D01*
X133175000Y-87025000D02*
X121075000Y-87050000D01*
X121075000Y-87050000D02*
X120396907Y-87926783D01*
X120396907Y-87926783D02*
X120396907Y-94608093D01*
X120396907Y-94608093D02*
X118545000Y-96460000D01*
X117585000Y-93400000D02*
X106165000Y-93400000D01*
X106165000Y-93400000D02*
X105225000Y-94340000D01*
X118545000Y-96460000D02*
X118545000Y-94360000D01*
X118545000Y-94360000D02*
X117585000Y-93400000D01*
D21*
X105225000Y-94340000D02*
X105225000Y-96880000D01*
D20*
X112100000Y-109570000D02*
X112100000Y-119335000D01*
X112100000Y-119335000D02*
X112050000Y-119385000D01*
D22*
X143700000Y-116700000D02*
X141578680Y-116700000D01*
X141578680Y-116700000D02*
X136378680Y-121900000D01*
X136378680Y-121900000D02*
X127460000Y-121900000D01*
X127460000Y-121900000D02*
X125200000Y-119640000D01*
X147500000Y-121480000D02*
X147500000Y-106320000D01*
X147500000Y-106320000D02*
X147200000Y-106020000D01*
X147200000Y-106020000D02*
X143700000Y-106020000D01*
X143700000Y-121780000D02*
X147200000Y-121780000D01*
X147200000Y-121780000D02*
X147500000Y-121480000D01*
X143700000Y-106020000D02*
X140200000Y-106020000D01*
X140200000Y-106020000D02*
X136140000Y-101960000D01*
X136140000Y-101960000D02*
X128370000Y-101960000D01*
X128370000Y-101960000D02*
X125100000Y-101960000D01*
X143700000Y-111100000D02*
X141578680Y-111100000D01*
X141578680Y-111100000D02*
X141287070Y-111391610D01*
X141287070Y-111391610D02*
X132537139Y-111391610D01*
X132537139Y-111391610D02*
X126828749Y-117100000D01*
X126828749Y-117100000D02*
X125200000Y-117100000D01*
X121830000Y-104500000D02*
X121500000Y-104830000D01*
X121500000Y-104830000D02*
X121500000Y-116670000D01*
X121500000Y-116670000D02*
X121930000Y-117100000D01*
X121930000Y-117100000D02*
X125200000Y-117100000D01*
X125100000Y-104500000D02*
X121830000Y-104500000D01*
X121830000Y-104500000D02*
X121500000Y-104170000D01*
X121500000Y-101300000D02*
X121500000Y-104170000D01*
X123380000Y-99420000D02*
X121500000Y-101300000D01*
X125100000Y-99420000D02*
X123380000Y-99420000D01*
D20*
X100425000Y-92900000D02*
X107200000Y-86125000D01*
X100425000Y-119650000D02*
X100425000Y-92900000D01*
X101625000Y-120850000D02*
X100425000Y-119650000D01*
X104100000Y-120850000D02*
X101625000Y-120850000D01*
X105225000Y-117200000D02*
X105225000Y-119725000D01*
X105225000Y-119725000D02*
X104100000Y-120850000D01*
X107200000Y-86125000D02*
X133700000Y-86075000D01*
X133700000Y-86075000D02*
X137440000Y-90190000D01*
X137440000Y-90190000D02*
X143700000Y-90190000D01*
D21*
X102685000Y-94340000D02*
X102685000Y-96880000D01*
D20*
X143700000Y-100350000D02*
X140000000Y-96650000D01*
X118750000Y-99500000D02*
X114550000Y-99500000D01*
X140000000Y-96650000D02*
X140000000Y-95881864D01*
X112899999Y-101150001D02*
X112100000Y-101950000D01*
X140000000Y-95881864D02*
X132028738Y-87910602D01*
X132028738Y-87910602D02*
X122670116Y-87910602D01*
X122670116Y-87910602D02*
X121789694Y-88791024D01*
X121789694Y-88791024D02*
X121789694Y-96460306D01*
X121789694Y-96460306D02*
X118750000Y-99500000D01*
X114550000Y-99500000D02*
X112899999Y-101150001D01*
X111750000Y-96450000D02*
X115995000Y-96450000D01*
X115995000Y-96450000D02*
X116005000Y-96460000D01*
X118025000Y-101805000D02*
X123900000Y-95930000D01*
X123900000Y-95930000D02*
X123900000Y-89875000D01*
M02*
