G04 #@! TF.GenerationSoftware,KiCad,Pcbnew,(2017-11-24 revision a01d81e4b)-makepkg*
G04 #@! TF.CreationDate,2018-01-08T10:26:50+07:00*
G04 #@! TF.ProjectId,Motor DC power,4D6F746F7220444320706F7765722E6B,rev?*
G04 #@! TF.SameCoordinates,Original*
G04 #@! TF.FileFunction,Soldermask,Top*
G04 #@! TF.FilePolarity,Negative*
%FSLAX46Y46*%
G04 Gerber Fmt 4.6, Leading zero omitted, Abs format (unit mm)*
G04 Created by KiCad (PCBNEW (2017-11-24 revision a01d81e4b)-makepkg) date 01/08/18 10:26:50*
%MOMM*%
%LPD*%
G01*
G04 APERTURE LIST*
%ADD10R,2.200000X2.200000*%
%ADD11C,2.200000*%
%ADD12C,2.000000*%
%ADD13O,2.000000X2.000000*%
%ADD14O,2.940000X2.432000*%
%ADD15R,2.127200X2.127200*%
%ADD16O,2.127200X2.127200*%
%ADD17R,3.400000X3.400000*%
%ADD18C,3.400000*%
%ADD19O,2.000000X3.600000*%
G04 APERTURE END LIST*
D10*
X112050000Y-121925000D03*
D11*
X112050000Y-119385000D03*
D12*
X117000000Y-114500000D03*
D13*
X117000000Y-122120000D03*
D14*
X125100000Y-101960000D03*
X125100000Y-104500000D03*
X125100000Y-99420000D03*
D15*
X105225000Y-117200000D03*
D16*
X102685000Y-117200000D03*
X105225000Y-114660000D03*
X102685000Y-114660000D03*
X105225000Y-112120000D03*
X102685000Y-112120000D03*
X105225000Y-109580000D03*
X102685000Y-109580000D03*
X105225000Y-107040000D03*
X102685000Y-107040000D03*
X105225000Y-104500000D03*
X102685000Y-104500000D03*
X105225000Y-101960000D03*
X102685000Y-101960000D03*
X105225000Y-99420000D03*
X102685000Y-99420000D03*
X105225000Y-96880000D03*
X102685000Y-96880000D03*
X105225000Y-94340000D03*
X102685000Y-94340000D03*
D17*
X143700000Y-90190000D03*
D18*
X143700000Y-95270000D03*
X143700000Y-100350000D03*
D17*
X143700000Y-106020000D03*
D18*
X143700000Y-111100000D03*
D17*
X143700000Y-121780000D03*
D18*
X143700000Y-116700000D03*
D14*
X125200000Y-117100000D03*
X125200000Y-119640000D03*
X125200000Y-114560000D03*
D12*
X111750000Y-96450000D03*
D13*
X111750000Y-88830000D03*
D12*
X123900000Y-89875000D03*
D13*
X131520000Y-89875000D03*
D12*
X112100000Y-109570000D03*
D13*
X112100000Y-101950000D03*
D12*
X118025000Y-109425000D03*
D13*
X118025000Y-101805000D03*
D19*
X116005000Y-96460000D03*
X118545000Y-96460000D03*
X118545000Y-88840000D03*
X116005000Y-88840000D03*
M02*
