G04 #@! TF.GenerationSoftware,KiCad,Pcbnew,(2017-11-24 revision a01d81e4b)-makepkg*
G04 #@! TF.CreationDate,2018-01-06T21:54:51+07:00*
G04 #@! TF.ProjectId,Motor DC power,4D6F746F7220444320706F7765722E6B,rev?*
G04 #@! TF.SameCoordinates,Original*
G04 #@! TF.FileFunction,Legend,Top*
G04 #@! TF.FilePolarity,Positive*
%FSLAX46Y46*%
G04 Gerber Fmt 4.6, Leading zero omitted, Abs format (unit mm)*
G04 Created by KiCad (PCBNEW (2017-11-24 revision a01d81e4b)-makepkg) date 01/06/18 21:54:51*
%MOMM*%
%LPD*%
G01*
G04 APERTURE LIST*
%ADD10C,0.120000*%
%ADD11C,0.150000*%
%ADD12C,0.152400*%
%ADD13C,0.050000*%
G04 APERTURE END LIST*
D10*
X99320000Y-122675000D02*
X99320000Y-89115000D01*
X99320000Y-89115000D02*
X108670000Y-89115000D01*
X108670000Y-89115000D02*
X108670000Y-122675000D01*
X108670000Y-122675000D02*
X99320000Y-122675000D01*
X108920000Y-122925000D02*
X108920000Y-120385000D01*
X108920000Y-122925000D02*
X106380000Y-122925000D01*
X110971392Y-118982665D02*
G75*
G03X110814484Y-122215000I1078608J-1672335D01*
G01*
X113128608Y-118982665D02*
G75*
G02X113285516Y-122215000I-1078608J-1672335D01*
G01*
X110970163Y-119613870D02*
G75*
G03X110970000Y-121695961I1079837J-1041130D01*
G01*
X113129837Y-119613870D02*
G75*
G02X113130000Y-121695961I-1079837J-1041130D01*
G01*
X110814000Y-122215000D02*
X110970000Y-122215000D01*
X113130000Y-122215000D02*
X113286000Y-122215000D01*
X117980000Y-115100000D02*
X118310000Y-115100000D01*
X118310000Y-115100000D02*
X118310000Y-121520000D01*
X118310000Y-121520000D02*
X117980000Y-121520000D01*
X116020000Y-115100000D02*
X115690000Y-115100000D01*
X115690000Y-115100000D02*
X115690000Y-121520000D01*
X115690000Y-121520000D02*
X116020000Y-121520000D01*
D11*
X126751000Y-106786000D02*
X123322000Y-106786000D01*
X126751000Y-97134000D02*
X123322000Y-97134000D01*
X127894000Y-107294000D02*
X127894000Y-96626000D01*
X126878000Y-103738000D02*
X128148000Y-103738000D01*
X126878000Y-100182000D02*
X128148000Y-100182000D01*
X126751000Y-96626000D02*
X126751000Y-107294000D01*
X123322000Y-107294000D02*
X123322000Y-96626000D01*
X128148000Y-96626000D02*
X123322000Y-96626000D01*
X128148000Y-107294000D02*
X123322000Y-107294000D01*
X128148000Y-107294000D02*
X128148000Y-96626000D01*
D10*
X139890000Y-87650000D02*
X147510000Y-87650000D01*
X139890000Y-102890000D02*
X147510000Y-102890000D01*
X141160000Y-87650000D02*
X141160000Y-102890000D01*
X147510000Y-87650000D02*
X147510000Y-102890000D01*
X139890000Y-87650000D02*
X139890000Y-102890000D01*
X141160000Y-113640000D02*
X141160000Y-103480000D01*
X139890000Y-113640000D02*
X147510000Y-113640000D01*
X147510000Y-113640000D02*
X147510000Y-103480000D01*
X147510000Y-103480000D02*
X139890000Y-103480000D01*
X139890000Y-103480000D02*
X139890000Y-113640000D01*
X146240000Y-114160000D02*
X146240000Y-124320000D01*
X147510000Y-114160000D02*
X139890000Y-114160000D01*
X139890000Y-114160000D02*
X139890000Y-124320000D01*
X139890000Y-124320000D02*
X147510000Y-124320000D01*
X147510000Y-124320000D02*
X147510000Y-114160000D01*
D11*
X126851000Y-121926000D02*
X123422000Y-121926000D01*
X126851000Y-112274000D02*
X123422000Y-112274000D01*
X127994000Y-122434000D02*
X127994000Y-111766000D01*
X126978000Y-118878000D02*
X128248000Y-118878000D01*
X126978000Y-115322000D02*
X128248000Y-115322000D01*
X126851000Y-111766000D02*
X126851000Y-122434000D01*
X123422000Y-122434000D02*
X123422000Y-111766000D01*
X128248000Y-111766000D02*
X123422000Y-111766000D01*
X128248000Y-122434000D02*
X123422000Y-122434000D01*
X128248000Y-122434000D02*
X128248000Y-111766000D01*
D10*
X110770000Y-95850000D02*
X110440000Y-95850000D01*
X110440000Y-95850000D02*
X110440000Y-89430000D01*
X110440000Y-89430000D02*
X110770000Y-89430000D01*
X112730000Y-95850000D02*
X113060000Y-95850000D01*
X113060000Y-95850000D02*
X113060000Y-89430000D01*
X113060000Y-89430000D02*
X112730000Y-89430000D01*
X124500000Y-88895000D02*
X124500000Y-88565000D01*
X124500000Y-88565000D02*
X130920000Y-88565000D01*
X130920000Y-88565000D02*
X130920000Y-88895000D01*
X124500000Y-90855000D02*
X124500000Y-91185000D01*
X124500000Y-91185000D02*
X130920000Y-91185000D01*
X130920000Y-91185000D02*
X130920000Y-90855000D01*
X111120000Y-108970000D02*
X110790000Y-108970000D01*
X110790000Y-108970000D02*
X110790000Y-102550000D01*
X110790000Y-102550000D02*
X111120000Y-102550000D01*
X113080000Y-108970000D02*
X113410000Y-108970000D01*
X113410000Y-108970000D02*
X113410000Y-102550000D01*
X113410000Y-102550000D02*
X113080000Y-102550000D01*
X117045000Y-108825000D02*
X116715000Y-108825000D01*
X116715000Y-108825000D02*
X116715000Y-102405000D01*
X116715000Y-102405000D02*
X117045000Y-102405000D01*
X119005000Y-108825000D02*
X119335000Y-108825000D01*
X119335000Y-108825000D02*
X119335000Y-102405000D01*
X119335000Y-102405000D02*
X119005000Y-102405000D01*
D12*
X119815000Y-89729000D02*
X114735000Y-89729000D01*
X114735000Y-95571000D02*
X119815000Y-95571000D01*
X119815000Y-89729000D02*
X119815000Y-95571000D01*
X114735000Y-89729000D02*
X114735000Y-91634000D01*
X114735000Y-95571000D02*
X114735000Y-93666000D01*
X114735000Y-91634000D02*
G75*
G02X114735000Y-93666000I0J-1016000D01*
G01*
D11*
X104733095Y-123476619D02*
X104733095Y-124476619D01*
X104352142Y-124476619D01*
X104256904Y-124429000D01*
X104209285Y-124381380D01*
X104161666Y-124286142D01*
X104161666Y-124143285D01*
X104209285Y-124048047D01*
X104256904Y-124000428D01*
X104352142Y-123952809D01*
X104733095Y-123952809D01*
X103209285Y-123476619D02*
X103780714Y-123476619D01*
X103495000Y-123476619D02*
X103495000Y-124476619D01*
X103590238Y-124333761D01*
X103685476Y-124238523D01*
X103780714Y-124190904D01*
X109542380Y-121393095D02*
X108542380Y-121393095D01*
X108542380Y-121155000D01*
X108590000Y-121012142D01*
X108685238Y-120916904D01*
X108780476Y-120869285D01*
X108970952Y-120821666D01*
X109113809Y-120821666D01*
X109304285Y-120869285D01*
X109399523Y-120916904D01*
X109494761Y-121012142D01*
X109542380Y-121155000D01*
X109542380Y-121393095D01*
X109542380Y-119869285D02*
X109542380Y-120440714D01*
X109542380Y-120155000D02*
X108542380Y-120155000D01*
X108685238Y-120250238D01*
X108780476Y-120345476D01*
X108828095Y-120440714D01*
X118857619Y-117571904D02*
X119857619Y-117571904D01*
X119857619Y-117810000D01*
X119810000Y-117952857D01*
X119714761Y-118048095D01*
X119619523Y-118095714D01*
X119429047Y-118143333D01*
X119286190Y-118143333D01*
X119095714Y-118095714D01*
X119000476Y-118048095D01*
X118905238Y-117952857D01*
X118857619Y-117810000D01*
X118857619Y-117571904D01*
X119762380Y-118524285D02*
X119810000Y-118571904D01*
X119857619Y-118667142D01*
X119857619Y-118905238D01*
X119810000Y-119000476D01*
X119762380Y-119048095D01*
X119667142Y-119095714D01*
X119571904Y-119095714D01*
X119429047Y-119048095D01*
X118857619Y-118476666D01*
X118857619Y-119095714D01*
X128965619Y-101221904D02*
X129965619Y-101221904D01*
X129965619Y-101460000D01*
X129918000Y-101602857D01*
X129822761Y-101698095D01*
X129727523Y-101745714D01*
X129537047Y-101793333D01*
X129394190Y-101793333D01*
X129203714Y-101745714D01*
X129108476Y-101698095D01*
X129013238Y-101602857D01*
X128965619Y-101460000D01*
X128965619Y-101221904D01*
X129965619Y-102126666D02*
X129965619Y-102745714D01*
X129584666Y-102412380D01*
X129584666Y-102555238D01*
X129537047Y-102650476D01*
X129489428Y-102698095D01*
X129394190Y-102745714D01*
X129156095Y-102745714D01*
X129060857Y-102698095D01*
X129013238Y-102650476D01*
X128965619Y-102555238D01*
X128965619Y-102269523D01*
X129013238Y-102174285D01*
X129060857Y-102126666D01*
X147897619Y-94501904D02*
X148897619Y-94501904D01*
X148897619Y-94882857D01*
X148850000Y-94978095D01*
X148802380Y-95025714D01*
X148707142Y-95073333D01*
X148564285Y-95073333D01*
X148469047Y-95025714D01*
X148421428Y-94978095D01*
X148373809Y-94882857D01*
X148373809Y-94501904D01*
X148802380Y-95454285D02*
X148850000Y-95501904D01*
X148897619Y-95597142D01*
X148897619Y-95835238D01*
X148850000Y-95930476D01*
X148802380Y-95978095D01*
X148707142Y-96025714D01*
X148611904Y-96025714D01*
X148469047Y-95978095D01*
X147897619Y-95406666D01*
X147897619Y-96025714D01*
X148327619Y-107821904D02*
X149327619Y-107821904D01*
X149327619Y-108202857D01*
X149280000Y-108298095D01*
X149232380Y-108345714D01*
X149137142Y-108393333D01*
X148994285Y-108393333D01*
X148899047Y-108345714D01*
X148851428Y-108298095D01*
X148803809Y-108202857D01*
X148803809Y-107821904D01*
X149327619Y-108726666D02*
X149327619Y-109345714D01*
X148946666Y-109012380D01*
X148946666Y-109155238D01*
X148899047Y-109250476D01*
X148851428Y-109298095D01*
X148756190Y-109345714D01*
X148518095Y-109345714D01*
X148422857Y-109298095D01*
X148375238Y-109250476D01*
X148327619Y-109155238D01*
X148327619Y-108869523D01*
X148375238Y-108774285D01*
X148422857Y-108726666D01*
X139072380Y-119978095D02*
X138072380Y-119978095D01*
X138072380Y-119597142D01*
X138120000Y-119501904D01*
X138167619Y-119454285D01*
X138262857Y-119406666D01*
X138405714Y-119406666D01*
X138500952Y-119454285D01*
X138548571Y-119501904D01*
X138596190Y-119597142D01*
X138596190Y-119978095D01*
X138405714Y-118549523D02*
X139072380Y-118549523D01*
X138024761Y-118787619D02*
X138739047Y-119025714D01*
X138739047Y-118406666D01*
X128970380Y-117004761D02*
X129018000Y-116909523D01*
X129113238Y-116814285D01*
X129256095Y-116671428D01*
X129303714Y-116576190D01*
X129303714Y-116480952D01*
X129065619Y-116528571D02*
X129113238Y-116433333D01*
X129208476Y-116338095D01*
X129398952Y-116290476D01*
X129732285Y-116290476D01*
X129922761Y-116338095D01*
X130018000Y-116433333D01*
X130065619Y-116528571D01*
X130065619Y-116719047D01*
X130018000Y-116814285D01*
X129922761Y-116909523D01*
X129732285Y-116957142D01*
X129398952Y-116957142D01*
X129208476Y-116909523D01*
X129113238Y-116814285D01*
X129065619Y-116719047D01*
X129065619Y-116528571D01*
X129065619Y-117909523D02*
X129065619Y-117338095D01*
X129065619Y-117623809D02*
X130065619Y-117623809D01*
X129922761Y-117528571D01*
X129827523Y-117433333D01*
X129779904Y-117338095D01*
X109892380Y-92806666D02*
X109416190Y-93140000D01*
X109892380Y-93378095D02*
X108892380Y-93378095D01*
X108892380Y-92997142D01*
X108940000Y-92901904D01*
X108987619Y-92854285D01*
X109082857Y-92806666D01*
X109225714Y-92806666D01*
X109320952Y-92854285D01*
X109368571Y-92901904D01*
X109416190Y-92997142D01*
X109416190Y-93378095D01*
X109892380Y-91854285D02*
X109892380Y-92425714D01*
X109892380Y-92140000D02*
X108892380Y-92140000D01*
X109035238Y-92235238D01*
X109130476Y-92330476D01*
X109178095Y-92425714D01*
X127543333Y-88017380D02*
X127210000Y-87541190D01*
X126971904Y-88017380D02*
X126971904Y-87017380D01*
X127352857Y-87017380D01*
X127448095Y-87065000D01*
X127495714Y-87112619D01*
X127543333Y-87207857D01*
X127543333Y-87350714D01*
X127495714Y-87445952D01*
X127448095Y-87493571D01*
X127352857Y-87541190D01*
X126971904Y-87541190D01*
X127924285Y-87112619D02*
X127971904Y-87065000D01*
X128067142Y-87017380D01*
X128305238Y-87017380D01*
X128400476Y-87065000D01*
X128448095Y-87112619D01*
X128495714Y-87207857D01*
X128495714Y-87303095D01*
X128448095Y-87445952D01*
X127876666Y-88017380D01*
X128495714Y-88017380D01*
X110242380Y-105926666D02*
X109766190Y-106260000D01*
X110242380Y-106498095D02*
X109242380Y-106498095D01*
X109242380Y-106117142D01*
X109290000Y-106021904D01*
X109337619Y-105974285D01*
X109432857Y-105926666D01*
X109575714Y-105926666D01*
X109670952Y-105974285D01*
X109718571Y-106021904D01*
X109766190Y-106117142D01*
X109766190Y-106498095D01*
X109242380Y-105593333D02*
X109242380Y-104974285D01*
X109623333Y-105307619D01*
X109623333Y-105164761D01*
X109670952Y-105069523D01*
X109718571Y-105021904D01*
X109813809Y-104974285D01*
X110051904Y-104974285D01*
X110147142Y-105021904D01*
X110194761Y-105069523D01*
X110242380Y-105164761D01*
X110242380Y-105450476D01*
X110194761Y-105545714D01*
X110147142Y-105593333D01*
X116167380Y-105781666D02*
X115691190Y-106115000D01*
X116167380Y-106353095D02*
X115167380Y-106353095D01*
X115167380Y-105972142D01*
X115215000Y-105876904D01*
X115262619Y-105829285D01*
X115357857Y-105781666D01*
X115500714Y-105781666D01*
X115595952Y-105829285D01*
X115643571Y-105876904D01*
X115691190Y-105972142D01*
X115691190Y-106353095D01*
X115500714Y-104924523D02*
X116167380Y-104924523D01*
X115119761Y-105162619D02*
X115834047Y-105400714D01*
X115834047Y-104781666D01*
D13*
X113171380Y-93538904D02*
X113980904Y-93538904D01*
X114076142Y-93491285D01*
X114123761Y-93443666D01*
X114171380Y-93348428D01*
X114171380Y-93157952D01*
X114123761Y-93062714D01*
X114076142Y-93015095D01*
X113980904Y-92967476D01*
X113171380Y-92967476D01*
X114171380Y-91967476D02*
X114171380Y-92538904D01*
X114171380Y-92253190D02*
X113171380Y-92253190D01*
X113314238Y-92348428D01*
X113409476Y-92443666D01*
X113457095Y-92538904D01*
X117702380Y-95547619D02*
X117702380Y-96023809D01*
X116702380Y-96023809D01*
X116702380Y-95357142D02*
X116702380Y-94785714D01*
X117702380Y-95071428D02*
X116702380Y-95071428D01*
X116702380Y-94595238D02*
X117702380Y-94261904D01*
X116702380Y-93928571D01*
X117321428Y-93595238D02*
X117321428Y-92833333D01*
X117130952Y-92214285D02*
X117083333Y-92309523D01*
X117035714Y-92357142D01*
X116940476Y-92404761D01*
X116892857Y-92404761D01*
X116797619Y-92357142D01*
X116750000Y-92309523D01*
X116702380Y-92214285D01*
X116702380Y-92023809D01*
X116750000Y-91928571D01*
X116797619Y-91880952D01*
X116892857Y-91833333D01*
X116940476Y-91833333D01*
X117035714Y-91880952D01*
X117083333Y-91928571D01*
X117130952Y-92023809D01*
X117130952Y-92214285D01*
X117178571Y-92309523D01*
X117226190Y-92357142D01*
X117321428Y-92404761D01*
X117511904Y-92404761D01*
X117607142Y-92357142D01*
X117654761Y-92309523D01*
X117702380Y-92214285D01*
X117702380Y-92023809D01*
X117654761Y-91928571D01*
X117607142Y-91880952D01*
X117511904Y-91833333D01*
X117321428Y-91833333D01*
X117226190Y-91880952D01*
X117178571Y-91928571D01*
X117130952Y-92023809D01*
X117702380Y-90880952D02*
X117702380Y-91452380D01*
X117702380Y-91166666D02*
X116702380Y-91166666D01*
X116845238Y-91261904D01*
X116940476Y-91357142D01*
X116988095Y-91452380D01*
X116702380Y-90547619D02*
X116702380Y-89880952D01*
X117702380Y-90309523D01*
M02*
