M48
;DRILL file {KiCad (2017-11-24 revision a01d81e4b)-makepkg} date 01/06/18 21:55:04
;FORMAT={-:-/ absolute / metric / decimal}
FMAT,2
METRIC,TZ
T1C0.800
T2C0.813
T3C0.900
T4C1.016
T5C1.143
T6C1.520
%
G90
G05
M71
T1
X112.1Y-101.95
X118.025Y-101.805
X111.75Y-88.83
X111.75Y-96.45
X123.9Y-89.875
X131.52Y-89.875
X117.Y-114.5
X117.Y-122.12
X112.1Y-109.57
X118.025Y-109.425
T2
X116.005Y-88.84
X116.005Y-96.46
X118.545Y-88.84
X118.545Y-96.46
T3
X112.05Y-119.385
X112.05Y-121.925
T4
X102.725Y-94.465
X102.725Y-97.005
X102.725Y-99.545
X102.725Y-102.085
X102.725Y-104.625
X102.725Y-107.165
X102.725Y-109.705
X102.725Y-112.245
X102.725Y-114.785
X102.725Y-117.325
X105.265Y-94.465
X105.265Y-97.005
X105.265Y-99.545
X105.265Y-102.085
X105.265Y-104.625
X105.265Y-107.165
X105.265Y-109.705
X105.265Y-112.245
X105.265Y-114.785
X105.265Y-117.325
T5
X125.1Y-99.42
X125.1Y-101.96
X125.1Y-104.5
X125.2Y-114.56
X125.2Y-117.1
X125.2Y-119.64
T6
X143.7Y-90.19
X143.7Y-95.27
X143.7Y-100.35
X143.7Y-106.02
X143.7Y-111.1
X143.7Y-116.7
X143.7Y-121.78
T0
M30
