M48
;DRILL file {KiCad (2017-11-24 revision a01d81e4b)-makepkg} date 12/25/17 08:14:13
;FORMAT={-:-/ absolute / metric / decimal}
FMAT,2
METRIC,TZ
T1C0.800
T2C0.813
T3C0.900
T4C1.016
T5C1.143
T6C1.520
%
G90
G05
M71
T1
X111.75Y-88.83
X123.9Y-89.875
X131.52Y-89.875
X112.1Y-101.95
X118.025Y-101.805
X118.025Y-109.425
X111.75Y-96.45
X117.Y-114.5
X117.Y-122.12
X112.1Y-109.57
T2
X116.005Y-88.84
X116.005Y-96.46
X118.545Y-88.84
X118.545Y-96.46
T3
X112.05Y-119.385
X112.05Y-121.925
T4
X102.7Y-94.665
X102.7Y-97.205
X102.7Y-99.745
X102.7Y-102.285
X102.7Y-104.825
X102.7Y-107.365
X102.7Y-109.905
X102.7Y-112.445
X102.7Y-114.985
X102.7Y-117.525
X105.24Y-94.665
X105.24Y-97.205
X105.24Y-99.745
X105.24Y-102.285
X105.24Y-104.825
X105.24Y-107.365
X105.24Y-109.905
X105.24Y-112.445
X105.24Y-114.985
X105.24Y-117.525
T5
X125.1Y-99.42
X125.1Y-101.96
X125.1Y-104.5
X125.2Y-114.56
X125.2Y-117.1
X125.2Y-119.64
T6
X143.7Y-106.02
X143.7Y-111.1
X143.7Y-116.7
X143.7Y-121.78
X143.7Y-90.19
X143.7Y-95.27
X143.7Y-100.35
T0
M30
